<svg width="50" height="51" viewBox="0 0 50 51" fill="none" xmlns="http://www.w3.org/2000/svg">
<rect y="0.512207" width="50" height="50" rx="25" fill="white"/>
<path d="M22 20.7622H20.5C19.9033 20.7622 19.331 20.9993 18.909 21.4212C18.4871 21.8432 18.25 22.4155 18.25 23.0122V32.0122C18.25 32.6089 18.4871 33.1812 18.909 33.6032C19.331 34.0252 19.9033 34.2622 20.5 34.2622H29.5C30.0967 34.2622 30.669 34.0252 31.091 33.6032C31.5129 33.1812 31.75 32.6089 31.75 32.0122V23.0122C31.75 22.4155 31.5129 21.8432 31.091 21.4212C30.669 20.9993 30.0967 20.7622 29.5 20.7622H28M22 24.5122L25 27.5122M25 27.5122L28 24.5122M25 27.5122V14.7622" stroke="#343F42" stroke-width="1.5" stroke-linecap="round" stroke-linejoin="round"/>
</svg>
